<svg xmlns="http://www.w3.org/2000/svg" viewBox="0 0 100 66"><path d="M40.4 29.5s9.5-.7 9.5-12.3C49.8 5.6 42.1 0 32.3 0H0v64.6h32.3S52 65.2 52 45.5c0 .1.8-16-11.6-16zm-26.2-18h18s4.4 0 4.4 6.7-2.6 7.7-5.5 7.7H14.2V11.5zm17.2 41.6H14.2V35.9h18s6.5-.1 6.5 8.9c.1 7.5-4.8 8.3-7.3 8.3zm46.8-36.7c-23.8 0-23.8 24.8-23.8 24.8S52.8 66 78.2 66c0 0 21.2 1.3 21.2-17.2H88.6s.4 6.9-9.9 6.9c0 0-10.9.8-10.9-11.2h32.1c-.1 0 3.4-28.1-21.7-28.1zm9.7 19.5H67.6s1.3-10 10.9-10 9.4 10 9.4 10zm2.6-32.1H64.9v8h25.6v-8z"/></svg>