<svg xmlns="http://www.w3.org/2000/svg" viewBox="0 0 92 92"><path d="M43.8 33.1C37 21 29.8 11.2 29.2 10.5c-11 5.2-19.1 15.3-21.7 27.4 1.1 0 17.5.2 36.3-4.8zm4.9 13.2c.5-.2 1-.3 1.5-.5-1-2.2-2.1-4.5-3.2-6.7-20.2 6.1-39.6 5.6-40.3 5.6v1.2c0 10.1 3.8 19.3 10.1 26.3s10.7-19 31.9-25.9zM21.9 77c-.3-.2-.6-.5-.9-.7.5.4.9.7.9.7zM36.6 7.9h-.1.1zm35.3 8.6C65 10.4 55.9 6.7 46 6.7c-3.2 0-6.3.4-9.3 1.1.6.8 8 10.6 14.7 22.9 14.8-5.5 20.4-14 20.5-14.2zM46 92C20.6 92 0 71.4 0 46S20.6 0 46 0s46 20.6 46 46-20.6 46-46 46zm6.7-39.6C29.6 60.5 22 76.6 21.9 77c6.7 5.2 15 8.3 24.1 8.3 5.4 0 10.6-1.1 15.3-3.1-.6-3.4-2.9-15.5-8.4-29.8h-.2zm1.8-15.8c.9 1.9 1.8 3.8 2.6 5.7.3.7.6 1.4.8 2 13.6-1.7 26.9 1.2 27.4 1.3-.1-9.3-3.4-17.9-8.9-24.6-.1.2-6.4 9.3-21.9 15.6zm5.8 13.9c5.2 14.2 7.3 25.7 7.6 28.1 8.8-6 15.1-15.4 16.8-26.4-.7-.2-11.7-3.7-24.4-1.7z"/></svg>