<svg xmlns="http://www.w3.org/2000/svg">

	<symbol id="twitter" viewBox="0 0 512 512">
	<g>
		<path d="M512,97.248c-19.04,8.352-39.328,13.888-60.48,16.576c21.76-12.992,38.368-33.408,46.176-58.016
			c-20.288,12.096-42.688,20.64-66.56,25.408C411.872,60.704,384.416,48,354.464,48c-58.112,0-104.896,47.168-104.896,104.992
			c0,8.32,0.704,16.32,2.432,23.936c-87.264-4.256-164.48-46.08-216.352-109.792c-9.056,15.712-14.368,33.696-14.368,53.056
			c0,36.352,18.72,68.576,46.624,87.232c-16.864-0.32-33.408-5.216-47.424-12.928c0,0.32,0,0.736,0,1.152
			c0,51.008,36.384,93.376,84.096,103.136c-8.544,2.336-17.856,3.456-27.52,3.456c-6.72,0-13.504-0.384-19.872-1.792
			c13.6,41.568,52.192,72.128,98.08,73.12c-35.712,27.936-81.056,44.768-130.144,44.768c-8.608,0-16.864-0.384-25.12-1.44
			C46.496,446.88,101.6,464,161.024,464c193.152,0,298.752-160,298.752-298.688c0-4.64-0.16-9.12-0.384-13.568
			C480.224,136.96,497.728,118.496,512,97.248z"/>
	</g>
	</symbol>

	<symbol id="be" viewBox="0 0 100 66">
		<path d="M40.4 29.5s9.5-.7 9.5-12.3C49.8 5.6 42.1 0 32.3 0H0v64.6h32.3S52 65.2 52 45.5c0 .1.8-16-11.6-16zm-26.2-18h18s4.4 0 4.4 6.7-2.6 7.7-5.5 7.7H14.2V11.5zm17.2 41.6H14.2V35.9h18s6.5-.1 6.5 8.9c.1 7.5-4.8 8.3-7.3 8.3zm46.8-36.7c-23.8 0-23.8 24.8-23.8 24.8S52.8 66 78.2 66c0 0 21.2 1.3 21.2-17.2H88.6s.4 6.9-9.9 6.9c0 0-10.9.8-10.9-11.2h32.1c-.1 0 3.4-28.1-21.7-28.1zm9.7 19.5H67.6s1.3-10 10.9-10 9.4 10 9.4 10zm2.6-32.1H64.9v8h25.6v-8z"/>
	</symbol>

	<symbol id="drib" viewBox="0 0 92 92">
		<path d="M43.8 33.1C37 21 29.8 11.2 29.2 10.5c-11 5.2-19.1 15.3-21.7 27.4 1.1 0 17.5.2 36.3-4.8zm4.9 13.2c.5-.2 1-.3 1.5-.5-1-2.2-2.1-4.5-3.2-6.7-20.2 6.1-39.6 5.6-40.3 5.6v1.2c0 10.1 3.8 19.3 10.1 26.3s10.7-19 31.9-25.9zM21.9 77c-.3-.2-.6-.5-.9-.7.5.4.9.7.9.7zM36.6 7.9h-.1.1zm35.3 8.6C65 10.4 55.9 6.7 46 6.7c-3.2 0-6.3.4-9.3 1.1.6.8 8 10.6 14.7 22.9 14.8-5.5 20.4-14 20.5-14.2zM46 92C20.6 92 0 71.4 0 46S20.6 0 46 0s46 20.6 46 46-20.6 46-46 46zm6.7-39.6C29.6 60.5 22 76.6 21.9 77c6.7 5.2 15 8.3 24.1 8.3 5.4 0 10.6-1.1 15.3-3.1-.6-3.4-2.9-15.5-8.4-29.8h-.2zm1.8-15.8c.9 1.9 1.8 3.8 2.6 5.7.3.7.6 1.4.8 2 13.6-1.7 26.9 1.2 27.4 1.3-.1-9.3-3.4-17.9-8.9-24.6-.1.2-6.4 9.3-21.9 15.6zm5.8 13.9c5.2 14.2 7.3 25.7 7.6 28.1 8.8-6 15.1-15.4 16.8-26.4-.7-.2-11.7-3.7-24.4-1.7z"/>
	</symbol>

	<symbol id="facebook" viewBox="0 0 50 90">
		<path d="M50 15.6H35.7c-1.7 0-3.6 2.2-3.6 5.2v10.3H50v14.7H32.1V90H15.3V45.9H0V31.2h15.3v-8.7C15.3 10.1 23.9 0 35.7 0H50v15.6z"/>
	</symbol>

	<symbol id="linkedin" viewBox="0 0 90 88.7">
		<path d="M20.4 9.6c0 5.3-3.9 9.6-10.4 9.6-6.1 0-10-4.3-10-9.6C0 4.2 4.1 0 10.3 0c6.2 0 10 4.2 10.1 9.6zM.5 88.7V26.8h19.2v61.9H.5zm30.8-42.1c0-7.7-.3-14.2-.5-19.7h16.7l.9 8.6h.4c2.5-4.1 8.7-10 19.1-10 12.7 0 22.2 8.5 22.2 26.7v36.6H70.8V54.4c0-8-2.8-13.4-9.7-13.4-5.3 0-8.5 3.7-9.9 7.2-.5 1.3-.6 3-.6 4.8v35.7H31.3V46.6z"/>
	</symbol>

</svg>
