<?xml version="1.0" encoding="utf-8"?>
<!-- Generator: Adobe Illustrator 24.1.2, SVG Export Plug-In . SVG Version: 6.00 Build 0)  -->
<svg version="1.1" id="All_glyphs" xmlns="http://www.w3.org/2000/svg" xmlns:xlink="http://www.w3.org/1999/xlink" x="0px" y="0px"
	 viewBox="0 0 100 66" style="enable-background:new 0 0 100 66;" xml:space="preserve">
<path d="M40.4,29.5c0,0,9.5-0.7,9.5-12.3C49.8,5.6,42.1,0,32.3,0H0v64.6h32.3c0,0,19.7,0.6,19.7-19.1C52,45.6,52.8,29.5,40.4,29.5z
	 M14.2,11.5h18c0,0,4.4,0,4.4,6.7c0,6.7-2.6,7.7-5.5,7.7H14.2V11.5z M31.4,53.1H14.2V35.9h18c0,0,6.5-0.1,6.5,8.9
	C38.8,52.3,33.9,53.1,31.4,53.1z M78.2,16.4c-23.8,0-23.8,24.8-23.8,24.8S52.8,66,78.2,66c0,0,21.2,1.3,21.2-17.2H88.6
	c0,0,0.4,6.9-9.9,6.9c0,0-10.9,0.8-10.9-11.2h32.1C99.8,44.5,103.3,16.4,78.2,16.4z M87.9,35.9H67.6c0,0,1.3-10,10.9-10
	C88.1,25.9,87.9,35.9,87.9,35.9z M90.5,3.8H64.9v8h25.6V3.8z"/>
</svg>
